<svg width="70" height="70" viewBox="0 0 70 70" fill="none" xmlns="http://www.w3.org/2000/svg">
<rect x="0.5" y="0.5" width="69" height="69" stroke="#C9A227"/>
<path d="M49.5547 45.7109H22.0078V20.7266C22.0078 20.5504 21.8637 20.4062 21.6875 20.4062H19.4453C19.2691 20.4062 19.125 20.5504 19.125 20.7266V48.2734C19.125 48.4496 19.2691 48.5938 19.4453 48.5938H49.5547C49.7309 48.5938 49.875 48.4496 49.875 48.2734V46.0312C49.875 45.8551 49.7309 45.7109 49.5547 45.7109ZM25.5312 42.5078H27.7734C27.9496 42.5078 28.0938 42.3637 28.0938 42.1875V36.4219C28.0938 36.2457 27.9496 36.1016 27.7734 36.1016H25.5312C25.3551 36.1016 25.2109 36.2457 25.2109 36.4219V42.1875C25.2109 42.3637 25.3551 42.5078 25.5312 42.5078ZM31.6172 42.5078H33.8594C34.0355 42.5078 34.1797 42.3637 34.1797 42.1875V29.375C34.1797 29.1988 34.0355 29.0547 33.8594 29.0547H31.6172C31.441 29.0547 31.2969 29.1988 31.2969 29.375V42.1875C31.2969 42.3637 31.441 42.5078 31.6172 42.5078ZM37.7031 42.5078H39.9453C40.1215 42.5078 40.2656 42.3637 40.2656 42.1875V32.498C40.2656 32.3219 40.1215 32.1777 39.9453 32.1777H37.7031C37.527 32.1777 37.3828 32.3219 37.3828 32.498V42.1875C37.3828 42.3637 37.527 42.5078 37.7031 42.5078ZM43.7891 42.5078H46.0312C46.2074 42.5078 46.3516 42.3637 46.3516 42.1875V26.1719C46.3516 25.9957 46.2074 25.8516 46.0312 25.8516H43.7891C43.6129 25.8516 43.4688 25.9957 43.4688 26.1719V42.1875C43.4688 42.3637 43.6129 42.5078 43.7891 42.5078Z" fill="#C9A227"/>
</svg>
