<svg width="70" height="70" viewBox="0 0 70 70" fill="none" xmlns="http://www.w3.org/2000/svg">
<rect x="0.5" y="0.5" width="69" height="69" stroke="#C9A227"/>
<path fill-rule="evenodd" clip-rule="evenodd" d="M48.1666 20.8334V43.0417C48.166 44.1295 47.8193 45.189 47.1767 46.0667C46.5341 46.9443 45.6289 47.5948 44.5921 47.9239C43.5552 48.253 42.4406 48.2437 41.4094 47.8972C40.3783 47.5508 39.4841 46.8852 38.8563 45.9969C38.2285 45.1085 37.8996 44.0435 37.9173 42.9558C37.9349 41.8682 38.2982 40.8143 38.9546 39.9468C39.6109 39.0794 40.5262 38.4432 41.5681 38.1305C42.61 37.8177 43.7243 37.8446 44.7499 38.2072V24.2501H31.0833V46.4584C31.0827 47.5462 30.736 48.6056 30.0934 49.4833C29.4508 50.361 28.5455 51.0115 27.5087 51.3406C26.4719 51.6697 25.3572 51.6603 24.3261 51.3139C23.2949 50.9675 22.4007 50.3019 21.7729 49.4136C21.1451 48.5252 20.8163 47.4601 20.8339 46.3725C20.8516 45.2848 21.2149 44.231 21.8712 43.3635C22.5276 42.496 23.4429 41.8599 24.4848 41.5471C25.5266 41.2344 26.641 41.2612 27.6666 41.6238V20.8334C27.6666 19.9273 28.0266 19.0582 28.6673 18.4175C29.3081 17.7767 30.1771 17.4167 31.0833 17.4167H44.7499C45.6561 17.4167 46.5251 17.7767 47.1659 18.4175C47.8066 19.0582 48.1666 19.9273 48.1666 20.8334Z" fill="#C9A227"/>
</svg>
