<svg width="25" height="25" viewBox="0 0 25 25" fill="none" xmlns="http://www.w3.org/2000/svg">
<path fill-rule="evenodd" clip-rule="evenodd" d="M1.04175 2.95609C1.04175 2.44831 1.24346 1.96133 1.60252 1.60227C1.96157 1.24322 2.44855 1.04151 2.95633 1.04151H22.0417C22.2934 1.0411 22.5426 1.09032 22.7752 1.18637C23.0078 1.28241 23.2192 1.42339 23.3972 1.60123C23.5753 1.77907 23.7165 1.99028 23.8128 2.22277C23.9091 2.45525 23.9586 2.70445 23.9584 2.95609V22.0415C23.9587 22.2932 23.9093 22.5425 23.8132 22.7751C23.717 23.0077 23.5759 23.219 23.398 23.397C23.2201 23.5751 23.0088 23.7163 22.7763 23.8125C22.5437 23.9088 22.2945 23.9583 22.0428 23.9582H2.95633C2.70482 23.9582 2.45577 23.9086 2.22341 23.8123C1.99106 23.7161 1.77995 23.5749 1.60215 23.397C1.42435 23.2191 1.28334 23.008 1.18719 22.7755C1.09103 22.5431 1.04161 22.2941 1.04175 22.0425V2.95609ZM10.1126 9.77901H13.2157V11.3373C13.6636 10.4415 14.8095 9.63526 16.5313 9.63526C19.8324 9.63526 20.6147 11.4196 20.6147 14.6936V20.7582H17.274V15.4394C17.274 13.5748 16.8261 12.5228 15.6886 12.5228C14.1105 12.5228 13.4542 13.6571 13.4542 15.4394V20.7582H10.1126V9.77901ZM4.38342 20.6155H7.72508V9.63526H4.38342V20.6144V20.6155ZM8.20321 6.05401C8.20951 6.34012 8.1586 6.62462 8.05346 6.89079C7.94832 7.15697 7.79107 7.39946 7.59095 7.60404C7.39082 7.80862 7.15185 7.97117 6.88806 8.08214C6.62426 8.19311 6.34096 8.25028 6.05477 8.25028C5.76858 8.25028 5.48528 8.19311 5.22148 8.08214C4.95769 7.97117 4.71872 7.80862 4.51859 7.60404C4.31847 7.39946 4.16122 7.15697 4.05608 6.89079C3.95094 6.62462 3.90003 6.34012 3.90633 6.05401C3.9187 5.4924 4.15048 4.95796 4.55205 4.56514C4.95361 4.17232 5.49302 3.95236 6.05477 3.95236C6.61652 3.95236 7.15593 4.17232 7.55749 4.56514C7.95906 4.95796 8.19084 5.4924 8.20321 6.05401Z" fill="#C9A227"/>
</svg>
