<svg width="70" height="70" viewBox="0 0 70 70" fill="none" xmlns="http://www.w3.org/2000/svg">
<rect x="0.5" y="0.5" width="69" height="69" stroke="#C9A227"/>
<path d="M28.6114 21.3049C27.5287 21.2318 26.464 21.4266 25.5312 21.9647C24.2872 22.6822 23.4582 23.9084 23.0136 25.3216C22.569 26.731 22.4665 28.3581 22.6292 30.1352C22.6446 30.3146 22.6766 30.503 22.6984 30.6862C22.5293 30.7579 22.3499 30.8245 22.1859 30.9014C20.5664 31.6484 19.2096 32.5504 18.2089 33.6407C17.2095 34.7324 16.5625 36.0623 16.5625 37.4999C16.5625 38.9361 17.2095 40.2674 18.2089 41.359C19.2083 42.4493 20.5664 43.3513 22.1859 44.0983C22.3499 44.1752 22.5293 44.2418 22.6984 44.3135C22.6766 44.4968 22.6446 44.6851 22.6279 44.8645C22.4665 46.6416 22.569 48.2675 23.0136 49.6794C23.4582 51.0914 24.2872 52.3162 25.5312 53.035C26.7753 53.7525 28.2501 53.8589 29.6953 53.5385C31.1406 53.2182 32.5999 52.4918 34.0567 51.4629C34.204 51.3604 34.3514 51.2387 34.5 51.1285C34.6473 51.2387 34.7947 51.3591 34.9433 51.4629C36.4001 52.4918 37.8594 53.2182 39.3047 53.5385C40.7499 53.8589 42.2247 53.7538 43.4688 53.035C44.7128 52.3175 45.5418 51.0914 45.9864 49.6781C46.431 48.2688 46.5335 46.6416 46.3708 44.8645C46.3554 44.6851 46.3234 44.4968 46.3016 44.3135C46.4707 44.2418 46.6501 44.1752 46.8141 44.0983C48.4336 43.3513 49.7904 42.4493 50.7911 41.359C51.7905 40.2674 52.4375 38.9374 52.4375 37.4999C52.4375 36.0636 51.7905 34.7324 50.7911 33.6407C49.7917 32.5504 48.4336 31.6484 46.8141 30.9014C46.6501 30.8245 46.4707 30.7579 46.3016 30.6862C46.3234 30.503 46.3554 30.3146 46.3721 30.1352C46.5335 28.3581 46.431 26.7322 45.9864 25.3203C45.5418 23.9084 44.7128 22.6835 43.4688 21.9647C42.2247 21.2472 40.7499 21.1409 39.3047 21.4612C37.8594 21.7815 36.4001 22.508 34.9433 23.5368C34.796 23.6393 34.6486 23.761 34.5 23.8712C34.3527 23.761 34.2053 23.6406 34.0567 23.5368C32.5999 22.508 31.1406 21.7815 29.6953 21.4612C29.3385 21.3812 28.9762 21.3285 28.6114 21.3036V21.3049ZM28.4448 23.8571C28.6626 23.8725 28.8945 23.9084 29.1418 23.9647C30.1104 24.1787 31.27 24.722 32.4936 25.5727C31.4193 26.5953 30.4235 27.6973 29.5147 28.8694C28.0474 29.0695 26.5972 29.3796 25.1763 29.797C25.0508 28.3133 25.1584 27.0372 25.4557 26.0916C25.7619 25.123 26.218 24.5285 26.8125 24.1838C27.2584 23.9276 27.7888 23.8071 28.4435 23.8571H28.4448ZM40.5565 23.8571C41.2099 23.8071 41.7416 23.9276 42.1875 24.1838C42.782 24.5272 43.2381 25.123 43.5443 26.0916C43.8416 27.0372 43.9492 28.3133 43.8237 29.797C42.4028 29.3796 40.9526 29.0695 39.4853 28.8694C38.5765 27.6973 37.5807 26.5953 36.5064 25.5727C37.73 24.722 38.8896 24.1787 39.8582 23.9647C40.1055 23.9096 40.3374 23.8725 40.5565 23.8571ZM34.5 27.1973C34.9497 27.6137 35.3994 28.0763 35.8492 28.5606C35.3996 28.5428 34.9499 28.5329 34.5 28.5311C34.0452 28.5311 33.598 28.5452 33.1508 28.5606C33.5993 28.0763 34.0503 27.6137 34.5 27.1973ZM34.5 31.0936C35.7364 31.0936 36.9344 31.1666 38.0862 31.2884C38.7928 32.2558 39.4476 33.26 40.0478 34.2967C40.6654 35.3666 41.2009 36.4403 41.6724 37.4999C41.1879 38.5955 40.6456 39.6647 40.0478 40.703C39.4476 41.7397 38.7928 42.7439 38.0862 43.7114C36.9331 43.8331 35.7364 43.9061 34.5 43.9061C33.2636 43.9061 32.0656 43.8331 30.9138 43.7114C30.2072 42.7439 29.5524 41.7397 28.9522 40.703C28.3346 39.6331 27.7991 38.5595 27.3276 37.4999C27.7978 36.4403 28.3346 35.3666 28.9522 34.2967C29.5697 33.2269 30.2322 32.225 30.9138 31.2884C32.1049 31.1601 33.302 31.0951 34.5 31.0936ZM27.4326 31.8624C27.1956 32.2403 26.9598 32.6209 26.7331 33.0155C26.51 33.4062 26.2938 33.8009 26.0848 34.1994C25.8926 33.5893 25.7237 32.9722 25.5787 32.3492C26.1642 32.1686 26.7894 32.0084 27.4326 31.8624ZM41.5674 31.8624C42.2106 32.0084 42.8358 32.1686 43.4213 32.3492C43.2855 32.9476 43.11 33.569 42.9153 34.1994C42.7062 33.8009 42.49 33.4062 42.2669 33.0155C42.0406 32.627 41.8074 32.2426 41.5674 31.8624ZM23.1661 33.2756C23.4941 34.6401 23.9463 36.0559 24.5332 37.4999C23.9721 38.8717 23.5152 40.2838 23.1661 41.7241C21.8195 41.0899 20.7676 40.357 20.0988 39.6267C19.4133 38.8785 19.125 38.1866 19.125 37.4999C19.125 36.8131 19.4133 36.1212 20.0988 35.373C20.7676 34.6427 21.8195 33.9098 23.1661 33.2756ZM45.8339 33.2756C47.1805 33.9098 48.2324 34.6427 48.9012 35.373C49.5867 36.1212 49.875 36.8131 49.875 37.4999C49.875 38.1866 49.5867 38.8785 48.9012 39.6267C48.2324 40.357 47.1805 41.0899 45.8339 41.7241C45.4848 40.2838 45.0279 38.8717 44.4668 37.4999C45.0537 36.0559 45.5059 34.6401 45.8339 33.2756ZM34.5 33.6561C32.3923 33.6561 30.6562 35.3922 30.6562 37.4999C30.6562 39.6075 32.3923 41.3436 34.5 41.3436C36.6077 41.3436 38.3438 39.6075 38.3438 37.4999C38.3438 35.3922 36.6077 33.6561 34.5 33.6561ZM34.5 36.2186C35.2226 36.2186 35.7812 36.7772 35.7812 37.4999C35.7812 38.2225 35.2226 38.7811 34.5 38.7811C33.7774 38.7811 33.2188 38.2225 33.2188 37.4999C33.2188 36.7772 33.7774 36.2186 34.5 36.2186ZM26.0848 40.8004C26.2936 41.195 26.505 41.5896 26.7318 41.9842C26.9598 42.3789 27.1956 42.7594 27.4326 43.1374C26.7894 42.9913 26.1642 42.8311 25.5787 42.6505C25.7145 42.0521 25.89 41.4307 26.0848 40.8004ZM42.9153 40.8004C43.11 41.4307 43.2868 42.0521 43.4213 42.6505C42.8358 42.8311 42.2106 42.9913 41.5674 43.1374C41.8044 42.7594 42.0402 42.3789 42.2682 41.9842C42.495 41.5896 42.7064 41.195 42.9153 40.8004ZM25.1763 45.2027C26.5217 45.5999 27.9733 45.9177 29.5147 46.1304C30.4718 47.3604 31.475 48.4597 32.4936 49.427C31.27 50.2778 30.1104 50.821 29.1418 51.035C28.1514 51.2554 27.407 51.158 26.8125 50.8159C26.218 50.4725 25.7619 49.8767 25.4557 48.9081C25.1584 47.9625 25.0508 46.6864 25.1763 45.2027ZM43.8237 45.2027C43.9492 46.6864 43.8416 47.9625 43.5443 48.9081C43.2381 49.8767 42.782 50.4712 42.1875 50.8159C41.593 51.158 40.8486 51.2554 39.8582 51.035C38.8896 50.821 37.73 50.2778 36.5064 49.427C37.5807 48.4044 38.5765 47.3024 39.4853 46.1304C40.9526 45.9303 42.4028 45.6202 43.8237 45.2027ZM33.1508 46.4391C33.598 46.4545 34.0452 46.4686 34.5 46.4686C34.9548 46.4686 35.402 46.4545 35.8492 46.4391C35.4007 46.9235 34.9497 47.386 34.5 47.8024C34.0331 47.3653 33.583 46.9106 33.1508 46.4391Z" fill="#C9A227"/>
</svg>
