<svg width="17" height="17" viewBox="0 0 17 17" fill="none" xmlns="http://www.w3.org/2000/svg">
<path d="M13.4745 12.0254C13.1427 11.7076 12.8198 11.3807 12.5062 11.045C12.2427 10.7773 12.084 10.5825 12.084 10.5825L10.1007 9.63545C10.8947 8.7349 11.3329 7.57561 11.3332 6.37499C11.3332 3.64153 9.109 1.41666 6.37484 1.41666C3.64067 1.41666 1.4165 3.64153 1.4165 6.37499C1.4165 9.10845 3.64067 11.3333 6.37484 11.3333C7.62363 11.3333 8.76192 10.8658 9.63529 10.1015L10.5823 12.0849C10.5823 12.0849 10.7771 12.2435 11.0449 12.507C11.319 12.7642 11.6795 13.1119 12.0252 13.4753L12.9871 14.4613L13.415 14.9189L14.9173 13.4165L14.4598 12.9887C14.1913 12.7252 13.8329 12.3753 13.4745 12.0254V12.0254ZM6.37484 9.91666C4.42196 9.91666 2.83317 8.32787 2.83317 6.37499C2.83317 4.42211 4.42196 2.83332 6.37484 2.83332C8.32771 2.83332 9.9165 4.42211 9.9165 6.37499C9.9165 8.32787 8.32771 9.91666 6.37484 9.91666Z" fill="white"/>
</svg>
