<svg width="17" height="17" viewBox="0 0 17 17" fill="none" xmlns="http://www.w3.org/2000/svg">
<path d="M13.4747 12.0254C13.143 11.7076 12.8201 11.3807 12.5064 11.045C12.2429 10.7773 12.0842 10.5825 12.0842 10.5825L10.1009 9.63546C10.895 8.73491 11.3332 7.57562 11.3334 6.37501C11.3334 3.64155 9.10925 1.41667 6.37508 1.41667C3.64091 1.41667 1.41675 3.64155 1.41675 6.37501C1.41675 9.10846 3.64091 11.3333 6.37508 11.3333C7.62387 11.3333 8.76216 10.8658 9.63554 10.1015L10.5826 12.0849C10.5826 12.0849 10.7774 12.2435 11.0451 12.507C11.3192 12.7642 11.6798 13.112 12.0255 13.4753L12.9874 14.4613L13.4152 14.9189L14.9176 13.4165L14.46 12.9887C14.1915 12.7252 13.8331 12.3753 13.4747 12.0254ZM6.37508 9.91667C4.42221 9.91667 2.83341 8.32788 2.83341 6.37501C2.83341 4.42213 4.42221 2.83334 6.37508 2.83334C8.32796 2.83334 9.91675 4.42213 9.91675 6.37501C9.91675 8.32788 8.32796 9.91667 6.37508 9.91667Z" fill="#121212"/>
</svg>
