<svg width="70" height="70" viewBox="0 0 70 70" fill="none" xmlns="http://www.w3.org/2000/svg">
<rect x="0.5" y="0.5" width="69" height="69" stroke="#C9A227"/>
<path d="M34.5001 17.4167C25.065 17.4167 17.4167 25.065 17.4167 34.5001C17.4167 43.9352 25.065 51.5834 34.5001 51.5834C43.9352 51.5834 51.5834 43.9352 51.5834 34.5001C51.5834 25.065 43.9352 17.4167 34.5001 17.4167ZM28.0836 21.4706L33.2222 24.5456V28.292L28.4543 31.7565L24.9625 30.5487L23.9597 24.5115C25.1438 23.2621 26.5401 22.2326 28.0836 21.4706ZM20.186 36.9584L24.1612 32.9831L27.6462 34.1875L29.4947 39.8813L27.8376 42.572L22.212 42.2405C21.1948 40.6307 20.5062 38.8355 20.186 36.9584ZM31.9888 48.804L29.9662 44.0052L31.6113 41.3283H37.3718L38.9298 44.0292L37.1531 48.7783C35.4469 49.0934 33.6981 49.1021 31.9888 48.804ZM46.2739 43.0007L41.1079 42.6762L39.5055 39.9018L41.3625 34.1875L44.8013 32.9985L48.751 37.3035C48.3481 39.3597 47.5029 41.3037 46.2739 43.0007ZM45.0439 24.5166L44.0377 30.5521L40.5527 31.7565L35.7847 28.292V24.5439L40.9132 21.4689C42.4596 22.2323 43.8582 23.2642 45.0439 24.5166Z" fill="#C9A227"/>
</svg>
