<svg width="70" height="70" viewBox="0 0 70 70" fill="none" xmlns="http://www.w3.org/2000/svg">
<rect x="0.5" y="0.5" width="69" height="69" stroke="#C9A227"/>
<path d="M40.3336 26.5557C39.8392 26.5559 39.3601 26.7276 38.978 27.0415C38.596 27.3554 38.3346 27.7921 38.2384 28.2771C38.1422 28.7621 38.2171 29.2654 38.4504 29.7014C38.6837 30.1373 39.0609 30.4789 39.5178 30.6679C39.9747 30.8569 40.483 30.8817 40.9561 30.7379C41.4292 30.5942 41.8379 30.2908 42.1124 29.8796C42.3869 29.4684 42.5104 28.9747 42.4617 28.4826C42.413 27.9905 42.1953 27.5306 41.8455 27.1811C41.6472 26.9823 41.4115 26.8248 41.152 26.7174C40.8925 26.6101 40.6144 26.5551 40.3336 26.5557Z" fill="#C9A227"/>
<path d="M52.2324 18.0085C52.232 18.0061 52.232 18.0037 52.2324 18.0013C52.1647 17.7045 52.0153 17.4325 51.8013 17.216C51.5872 16.9995 51.3169 16.8472 51.0208 16.7761C48.6345 16.194 44.8804 16.8146 40.7204 18.4802C36.5275 20.1618 32.5988 22.6443 29.9434 25.3044C29.0923 26.151 28.3016 27.0563 27.5771 28.0135C25.789 27.9334 24.2138 28.1881 22.887 28.767C18.2632 30.8018 16.9428 36.0093 16.5912 38.1474C16.5403 38.4512 16.5603 38.7626 16.6494 39.0575C16.7386 39.3523 16.8946 39.6226 17.1052 39.8473C17.3159 40.072 17.5756 40.245 17.8641 40.353C18.1526 40.4609 18.4621 40.5009 18.7685 40.4696H18.7789L23.9296 39.9075C23.936 39.9732 23.9432 40.0332 23.9488 40.0885C24.0149 40.7161 24.2948 41.3019 24.7416 41.7477L27.2552 44.263C27.7003 44.7103 28.286 44.9905 28.9136 45.0565L29.0858 45.0749L28.5253 50.2192V50.2296C28.4966 50.5066 28.5261 50.7866 28.6118 51.0516C28.6975 51.3166 28.8376 51.5608 29.0231 51.7686C29.2086 51.9764 29.4354 52.1432 29.689 52.2584C29.9426 52.3735 30.2175 52.4345 30.496 52.4373C30.6073 52.4374 30.7185 52.4283 30.8283 52.4101C32.9784 52.0642 38.1835 50.7597 40.2127 46.1112C40.7868 44.7931 41.0407 43.2243 40.9694 41.4394C41.9309 40.7165 42.8395 39.9257 43.688 39.0731C46.3651 36.4097 48.8555 32.5131 50.5195 28.3811C52.1763 24.2682 52.8001 20.4861 52.2324 18.0085ZM43.6592 32.0126C43.0012 32.6713 42.1627 33.12 41.2496 33.302C40.3366 33.4839 39.3901 33.391 38.5299 33.035C37.6696 32.6789 36.9343 32.0757 36.417 31.3017C35.8996 30.5276 35.6235 29.6176 35.6235 28.6866C35.6235 27.7555 35.8996 26.8455 36.417 26.0714C36.9343 25.2974 37.6696 24.6942 38.5299 24.3381C39.3901 23.9821 40.3366 23.8892 41.2496 24.0711C42.1627 24.2531 43.0012 24.7018 43.6592 25.3605C44.1002 25.7949 44.4505 26.3127 44.6895 26.8837C44.9286 27.4547 45.0517 28.0675 45.0517 28.6866C45.0517 29.3056 44.9286 29.9184 44.6895 30.4894C44.4505 31.0604 44.1002 31.5782 43.6592 32.0126Z" fill="#C9A227"/>
<path d="M26.967 44.9455C26.6571 44.907 26.3439 44.9831 26.0861 45.1593C25.5744 45.5092 25.0603 45.8552 24.5414 46.1923C23.4916 46.8746 22.236 45.6766 22.8598 44.5907L23.8327 42.9091C23.9718 42.7056 24.0493 42.4663 24.0558 42.2199C24.0623 41.9735 23.9976 41.7305 23.8695 41.5199C23.7414 41.3094 23.5552 41.1403 23.3333 41.0328C23.1115 40.9254 22.8634 40.8843 22.6187 40.9143C21.5389 41.0509 20.5351 41.5428 19.7656 42.3125C19.4725 42.6064 18.5812 43.4985 18.1015 46.8978C17.965 47.8742 17.8789 48.857 17.8437 49.8423C17.8393 50.0133 17.8692 50.1834 17.9316 50.3427C17.994 50.5019 18.0877 50.6471 18.2071 50.7695C18.3266 50.892 18.4693 50.9893 18.6269 51.0558C18.7845 51.1222 18.9539 51.1564 19.1249 51.1563H19.157C20.143 51.1214 21.1266 51.0359 22.1038 50.9001C25.5048 50.4196 26.3968 49.5276 26.6899 49.2345C27.4632 48.4646 27.9539 47.4561 28.0825 46.3725C28.1236 46.0353 28.0293 45.6957 27.8201 45.4281C27.6109 45.1605 27.3041 44.9869 26.967 44.9455Z" fill="#C9A227"/>
</svg>
