<svg width="25" height="25" viewBox="0 0 25 25" fill="none" xmlns="http://www.w3.org/2000/svg">
<path d="M24.6282 5.14256C23.7584 5.52798 22.824 5.7884 21.8417 5.90611C22.8552 5.29964 23.6135 4.34513 23.975 3.22069C23.0228 3.7863 21.9806 4.18443 20.8938 4.39777C20.1629 3.61742 19.1949 3.1002 18.14 2.92639C17.085 2.75259 16.0022 2.93193 15.0597 3.43658C14.1171 3.94123 13.3675 4.74294 12.9273 5.71726C12.487 6.69157 12.3808 7.78397 12.625 8.82486C10.6955 8.72798 8.80798 8.22647 7.08485 7.35288C5.36172 6.47929 3.84153 5.25315 2.62295 3.75402C2.20628 4.47277 1.9667 5.30611 1.9667 6.19361C1.96623 6.99256 2.16298 7.77928 2.53949 8.48395C2.916 9.18863 3.46062 9.78948 4.12503 10.2332C3.35449 10.2087 2.60094 10.0005 1.92712 9.6259V9.6884C1.92704 10.809 2.31465 11.895 3.02418 12.7624C3.73371 13.6297 4.72146 14.2248 5.81982 14.4467C5.10502 14.6402 4.35559 14.6687 3.62816 14.5301C3.93805 15.4942 4.54169 16.3374 5.35458 16.9414C6.16747 17.5455 7.1489 17.8803 8.16149 17.8988C6.44257 19.2482 4.31971 19.9802 2.13441 19.9769C1.7473 19.977 1.36053 19.9544 0.976074 19.9092C3.19428 21.3355 5.77643 22.0924 8.41357 22.0894C17.3407 22.0894 22.2209 14.6957 22.2209 8.28319C22.2209 8.07486 22.2157 7.86444 22.2063 7.65611C23.1555 6.96962 23.9749 6.11954 24.6261 5.14569L24.6282 5.14256Z" fill="#C9A227"/>
</svg>
